<svg width="280" height="280" viewBox="0 0 280 280" fill="none" xmlns="http://www.w3.org/2000/svg">
<path d="M29.3683 112.585C31.5249 110.499 34.45 109.328 37.5 109.328C38.506 109.328 49.1014 109.388 64.6681 111.244C68.1741 120.632 70.6806 125.923 76.2183 135.416C65.3626 133.569 55.8688 132.608 49 132.112V219.488C65.215 220.4 95 223.947 129.5 237.012V203.697C132.533 207.586 136.742 209.501 141 209.443C145.132 209.387 149.309 207.471 152.5 203.697V237.012C187 223.947 216.785 220.4 233 219.488V132.112C226.131 132.608 216.637 133.569 205.782 135.416C211.056 125.83 213.863 120.515 217.332 111.264C232.99 109.389 243.49 109.328 244.5 109.328C247.55 109.328 250.475 110.499 252.632 112.585C254.788 114.67 256 117.498 256 120.447V230.341C256 233.343 254.735 236.234 252.504 238.336C250.25 240.426 246.857 241.727 244.12 241.449L242.66 241.438C234.805 241.438 193.256 242.516 145.876 263.955C145.692 264.044 145.485 264.01 145.301 264.077C143.921 264.622 142.483 265 141 265C139.516 265 138.079 264.622 136.71 264.077C136.526 264.01 136.319 264.044 136.135 263.955C88.7555 242.528 47.206 241.438 39.3515 241.438L37.891 241.449C35.0275 241.727 31.75 240.426 29.5075 238.336C28.398 237.299 27.5157 236.056 26.9132 234.683C26.3106 233.309 26 231.833 26 230.341V120.447C26 117.498 27.2116 114.67 29.3683 112.585Z" fill="white"/>
<path d="M135.9 183.935C87.2563 113.003 78.2271 105.724 78.2271 79.6552C78.2271 43.947 107.006 15 142.507 15C178.007 15 206.786 43.947 206.786 79.6552C206.786 105.724 197.757 113.003 149.113 183.935C145.92 188.574 139.092 188.573 135.9 183.935ZM142.507 116.178C163.598 116.178 179.337 96.4176 179.337 79.6552C179.337 58.5824 162.594 43.1418 142.507 43.1418C122.419 43.1418 105.676 60.0192 105.676 79.6552C105.676 99.2912 121.415 116.178 142.507 116.178Z" fill="white"/>
</svg>
