<svg width="367" height="99" viewBox="0 0 367 99" fill="none" xmlns="http://www.w3.org/2000/svg">
<path d="M29.264 12.444C25.592 12.444 22.568 13.2 20.192 14.712C17.816 16.224 16.628 18.528 16.628 21.624C16.628 24.648 17.816 26.988 20.192 28.644C22.568 30.228 27.608 31.956 35.312 33.828C43.088 35.7 48.92 38.328 52.808 41.712C56.768 45.096 58.748 50.1 58.748 56.724C58.748 63.276 56.264 68.604 51.296 72.708C46.328 76.812 39.812 78.864 31.748 78.864C19.94 78.864 9.464 74.796 0.32 66.66L8.312 57.048C15.944 63.672 23.864 66.984 32.072 66.984C36.176 66.984 39.416 66.12 41.792 64.392C44.24 62.592 45.464 60.252 45.464 57.372C45.464 54.42 44.312 52.152 42.008 50.568C39.776 48.912 35.888 47.436 30.344 46.14C24.8 44.772 20.588 43.548 17.708 42.468C14.828 41.316 12.272 39.84 10.04 38.04C5.576 34.656 3.344 29.472 3.344 22.488C3.344 15.504 5.864 10.14 10.904 6.39599C16.016 2.58 22.316 0.671998 29.804 0.671998C34.628 0.671998 39.416 1.464 44.168 3.048C48.92 4.632 53.024 6.864 56.48 9.744L49.676 19.356C47.444 17.34 44.42 15.684 40.604 14.388C36.788 13.092 33.008 12.444 29.264 12.444ZM87.6793 30.264V59.424C87.6793 62.16 88.3993 64.356 89.8393 66.012C91.2793 67.596 93.2953 68.388 95.8873 68.388C98.4793 68.388 100.963 67.128 103.339 64.608L108.307 73.14C104.059 76.956 99.3433 78.864 94.1593 78.864C89.0473 78.864 84.6553 77.1 80.9833 73.572C77.3833 69.972 75.5833 65.148 75.5833 59.1V30.264H68.3473V20.544H75.5833V2.50799H87.6793V20.544H102.799V30.264H87.6793ZM158.092 51.648V20.544H170.188V78H158.092V67.524C156.148 71.052 153.448 73.824 149.992 75.84C146.608 77.856 142.936 78.864 138.976 78.864C132.496 78.864 127.24 76.884 123.208 72.924C119.248 68.964 117.268 63.24 117.268 55.752V20.544H129.364V52.08C129.364 62.664 133.756 67.956 142.54 67.956C146.716 67.956 150.352 66.588 153.448 63.852C156.544 61.044 158.092 56.976 158.092 51.648ZM218.516 19.68C226.22 19.68 232.808 22.344 238.28 27.672C243.752 33 246.488 40.092 246.488 48.948C246.488 57.804 243.752 65.004 238.28 70.548C232.88 76.092 226.544 78.864 219.272 78.864C212.072 78.864 205.592 75.696 199.832 69.36V98.952H187.736V20.544H199.832V30.588C204.584 23.316 210.812 19.68 218.516 19.68ZM199.616 49.38C199.616 54.852 201.272 59.352 204.584 62.88C207.896 66.336 211.928 68.064 216.68 68.064C221.432 68.064 225.572 66.336 229.1 62.88C232.628 59.424 234.392 54.96 234.392 49.488C234.392 43.944 232.664 39.372 229.208 35.772C225.752 32.1 221.612 30.264 216.788 30.264C211.964 30.264 207.896 32.1 204.584 35.772C201.272 39.372 199.616 43.908 199.616 49.38ZM273.691 62.88C277.147 66.336 281.503 68.064 286.759 68.064C292.015 68.064 296.335 66.336 299.719 62.88C303.175 59.352 304.903 54.816 304.903 49.272C304.903 43.728 303.175 39.228 299.719 35.772C296.335 32.244 292.015 30.48 286.759 30.48C281.503 30.48 277.147 32.244 273.691 35.772C270.307 39.228 268.615 43.728 268.615 49.272C268.615 54.816 270.307 59.352 273.691 62.88ZM308.359 70.332C302.599 76.02 295.399 78.864 286.759 78.864C278.119 78.864 270.919 76.02 265.159 70.332C259.399 64.572 256.519 57.552 256.519 49.272C256.519 40.992 259.399 34.008 265.159 28.32C270.919 22.56 278.119 19.68 286.759 19.68C295.399 19.68 302.599 22.56 308.359 28.32C314.119 34.008 316.999 40.992 316.999 49.272C316.999 57.552 314.119 64.572 308.359 70.332ZM345.656 30.264V59.424C345.656 62.16 346.376 64.356 347.816 66.012C349.256 67.596 351.272 68.388 353.864 68.388C356.456 68.388 358.94 67.128 361.316 64.608L366.284 73.14C362.036 76.956 357.32 78.864 352.136 78.864C347.024 78.864 342.632 77.1 338.96 73.572C335.36 69.972 333.56 65.148 333.56 59.1V30.264H326.324V20.544H333.56V2.50799H345.656V20.544H360.776V30.264H345.656Z" fill="white"/>
</svg>
