<svg width="64" height="64" viewBox="0 0 64 64" fill="none" xmlns="http://www.w3.org/2000/svg">
<path d="M31.9999 13.3335C21.7333 13.3335 13.3333 21.7335 13.3333 32.0002C13.3333 42.2668 21.7333 50.6668 31.9999 50.6668C42.2666 50.6668 50.6666 42.2668 50.6666 32.0002C50.6666 21.7335 42.2666 13.3335 31.9999 13.3335ZM31.9999 46.9335C23.7679 46.9335 17.0666 40.2322 17.0666 32.0002C17.0666 23.7682 23.7679 17.0668 31.9999 17.0668C40.2319 17.0668 46.9333 23.7682 46.9333 32.0002C46.9333 40.2322 40.2319 46.9335 31.9999 46.9335ZM32.9333 22.6668H30.1333V33.8668L39.8399 39.8402L41.3333 37.4135L32.9333 32.3735V22.6668Z" fill="white"/>
</svg>
