<svg width="96" height="96" viewBox="0 0 96 96" fill="none" xmlns="http://www.w3.org/2000/svg">
<path d="M67.6 25.6H62V22.8C62 22.0574 61.705 21.3452 61.1799 20.8201C60.6548 20.295 59.9426 20 59.2 20C58.4574 20 57.7452 20.295 57.2201 20.8201C56.695 21.3452 56.4 22.0574 56.4 22.8V25.6H39.6V22.8C39.6 22.0574 39.305 21.3452 38.7799 20.8201C38.2548 20.295 37.5426 20 36.8 20C36.0574 20 35.3452 20.295 34.8201 20.8201C34.295 21.3452 34 22.0574 34 22.8V25.6H28.4C26.1722 25.6 24.0356 26.485 22.4603 28.0603C20.885 29.6356 20 31.7722 20 34V67.6C20 69.8278 20.885 71.9644 22.4603 73.5397C24.0356 75.115 26.1722 76 28.4 76H67.6C69.8278 76 71.9644 75.115 73.5397 73.5397C75.115 71.9644 76 69.8278 76 67.6V34C76 31.7722 75.115 29.6356 73.5397 28.0603C71.9644 26.485 69.8278 25.6 67.6 25.6V25.6ZM70.4 67.6C70.4 68.3426 70.105 69.0548 69.5799 69.5799C69.0548 70.105 68.3426 70.4 67.6 70.4H28.4C27.6574 70.4 26.9452 70.105 26.4201 69.5799C25.895 69.0548 25.6 68.3426 25.6 67.6V48H70.4V67.6ZM70.4 42.4H25.6V34C25.6 33.2574 25.895 32.5452 26.4201 32.0201C26.9452 31.495 27.6574 31.2 28.4 31.2H34V34C34 34.7426 34.295 35.4548 34.8201 35.9799C35.3452 36.505 36.0574 36.8 36.8 36.8C37.5426 36.8 38.2548 36.505 38.7799 35.9799C39.305 35.4548 39.6 34.7426 39.6 34V31.2H56.4V34C56.4 34.7426 56.695 35.4548 57.2201 35.9799C57.7452 36.505 58.4574 36.8 59.2 36.8C59.9426 36.8 60.6548 36.505 61.1799 35.9799C61.705 35.4548 62 34.7426 62 34V31.2H67.6C68.3426 31.2 69.0548 31.495 69.5799 32.0201C70.105 32.5452 70.4 33.2574 70.4 34V42.4Z" fill="white"/>
</svg>
