<svg width="172" height="172" viewBox="0 0 172 172" fill="none" xmlns="http://www.w3.org/2000/svg">
<path d="M90.0963 48C91.2135 48 92.2129 48.6954 92.5891 49.7366L95.2718 57.1731C96.2331 57.4125 97.0577 57.6519 97.7569 57.9027C98.5207 58.1763 99.5048 58.5905 100.721 59.1567L106.968 55.8507C107.478 55.5806 108.061 55.483 108.631 55.5728C109.201 55.6626 109.727 55.9347 110.129 56.3485L115.624 62.0294C116.353 62.7856 116.559 63.8914 116.148 64.8566L113.219 71.7231C113.705 72.6161 114.093 73.3799 114.389 74.0183C114.708 74.7137 115.103 75.6713 115.574 76.9063L122.403 79.8322C123.429 80.2692 124.063 81.2952 123.995 82.3934L123.493 90.2783C123.459 90.7905 123.275 91.2815 122.964 91.6901C122.654 92.0988 122.23 92.4073 121.745 92.5773L115.278 94.8762C115.092 95.7692 114.898 96.533 114.693 97.179C114.362 98.1767 113.984 99.1581 113.561 100.12L116.809 107.302C117.039 107.807 117.1 108.371 116.986 108.914C116.871 109.456 116.585 109.947 116.171 110.315L109.992 115.833C109.586 116.195 109.078 116.424 108.537 116.489C107.997 116.554 107.449 116.453 106.968 116.198L100.599 112.823C99.6028 113.351 98.5749 113.817 97.5213 114.218L94.7398 115.259L92.2699 122.099C92.0868 122.6 91.7567 123.034 91.3227 123.344C90.8887 123.654 90.3711 123.825 89.838 123.836L82.6182 123.999C82.0709 124.013 81.5326 123.858 81.0773 123.554C80.6221 123.249 80.2723 122.812 80.0761 122.301L77.1654 114.598C76.1723 114.259 75.189 113.891 74.2167 113.496C73.4214 113.152 72.6382 112.78 71.8684 112.383L64.6486 115.468C64.1729 115.671 63.6484 115.731 63.1391 115.642C62.6297 115.552 62.1574 115.316 61.7797 114.963L56.4371 109.951C56.0393 109.579 55.7684 109.092 55.6628 108.558C55.5571 108.024 55.6219 107.47 55.8481 106.975L58.9526 100.211C58.5397 99.4102 58.157 98.5939 57.8051 97.7642C57.3943 96.7486 57.0141 95.7209 56.6651 94.6824L49.8633 92.6115C49.3105 92.4444 48.8282 92.0994 48.4915 91.63C48.1549 91.1607 47.9826 90.5934 48.0014 90.0161L48.2674 82.7164C48.2863 82.2401 48.4351 81.7781 48.6976 81.3802C48.9602 80.9824 49.3265 80.6639 49.7569 80.4592L56.8931 77.0317C57.2237 75.8195 57.5125 74.8771 57.7671 74.1893C58.1255 73.2706 58.5236 72.3679 58.9602 71.4837L55.8671 64.9478C55.6324 64.4515 55.5611 63.8935 55.6635 63.354C55.7659 62.8146 56.0368 62.3216 56.4371 61.9458L61.7721 56.9071C62.1461 56.5544 62.6141 56.3172 63.1197 56.2242C63.6253 56.1311 64.147 56.1862 64.622 56.3827L71.8342 59.3619C72.6321 58.8299 73.3541 58.4005 74.0077 58.0547C74.7867 57.6405 75.8278 57.2073 77.1388 56.7399L79.6467 49.7442C79.8321 49.2322 80.171 48.7899 80.6172 48.4778C81.0633 48.1656 81.5949 47.9988 82.1394 48H90.0963ZM86.0913 74.6719C79.7569 74.6719 74.6233 79.7448 74.6233 86.0071C74.6233 92.2695 79.7569 97.3462 86.0913 97.3462C92.4219 97.3462 97.5555 92.2695 97.5555 86.0071C97.5555 79.7448 92.4257 74.6719 86.0913 74.6719Z" fill="white"/>
</svg>
