<svg width="96" height="96" viewBox="0 0 96 96" fill="none" xmlns="http://www.w3.org/2000/svg">
<path d="M16.9373 40.3236C17.5374 39.7395 18.3513 39.4116 19.2 39.4116C19.4799 39.4116 22.4282 39.4284 26.7598 39.9481C27.7354 42.5767 28.4329 44.0582 29.9738 46.7163C26.9531 46.1991 24.3113 45.93 22.4 45.7912V70.2565C26.912 70.5119 35.2 71.505 44.8 75.1632V65.835C45.644 66.9239 46.8152 67.4601 48 67.4439C49.1498 67.4282 50.3121 66.8917 51.2 65.835V75.1632C60.8 71.505 69.088 70.5119 73.6 70.2565V45.7912C71.6886 45.93 69.0468 46.1991 66.0263 46.7163C67.4938 44.0322 68.2749 42.544 69.2402 39.9537C73.5972 39.4287 76.519 39.4116 76.8 39.4116C77.6487 39.4116 78.4626 39.7395 79.0628 40.3236C79.6627 40.9074 80 41.6992 80 42.5249V73.2953C80 74.1359 79.648 74.9454 79.0272 75.5339C78.4 76.1191 77.4559 76.4834 76.6943 76.4056L76.288 76.4025C74.1023 76.4025 62.5408 76.7043 49.3568 82.7073C49.3056 82.7322 49.248 82.7227 49.1968 82.7414C48.8128 82.894 48.4127 82.9999 48 82.9999C47.5871 82.9999 47.1872 82.894 46.8063 82.7414C46.7551 82.7227 46.6975 82.7322 46.6463 82.7073C33.4624 76.7077 21.9008 76.4025 19.7152 76.4025L19.3088 76.4056C18.512 76.4834 17.6 76.1191 16.976 75.5339C16.6673 75.2436 16.4218 74.8955 16.2541 74.5111C16.0864 74.1264 16 73.7131 16 73.2953V42.5249C16 41.6992 16.3371 40.9074 16.9373 40.3236Z" fill="white"/>
<path d="M46.5808 60.3019C33.0452 40.4409 30.5327 38.4028 30.5327 31.1035C30.5327 21.1052 38.5408 13 48.4193 13C58.2976 13 66.3056 21.1052 66.3056 31.1035C66.3056 38.4028 63.7932 40.4409 50.2575 60.3019C49.369 61.6008 47.469 61.6006 46.5808 60.3019ZM48.4193 41.3299C54.2881 41.3299 58.6676 35.797 58.6676 31.1035C58.6676 25.2031 54.0087 20.8797 48.4193 20.8797C42.8296 20.8797 38.1707 25.6054 38.1707 31.1035C38.1707 36.6016 42.5502 41.3299 48.4193 41.3299Z" fill="white"/>
</svg>
