<svg width="128" height="128" viewBox="0 0 128 128" fill="none" xmlns="http://www.w3.org/2000/svg">
<path d="M16 58.6667H112C113.414 58.6667 114.771 58.1048 115.771 57.1046C116.771 56.1044 117.333 54.7478 117.333 53.3333C117.333 51.9188 116.771 50.5623 115.771 49.5621C114.771 48.5619 113.414 48 112 48H16C14.5855 48 13.2289 48.5619 12.2287 49.5621C11.2285 50.5623 10.6666 51.9188 10.6666 53.3333C10.6666 54.7478 11.2285 56.1044 12.2287 57.1046C13.2289 58.1048 14.5855 58.6667 16 58.6667V58.6667ZM112 69.3333H16C14.5855 69.3333 13.2289 69.8952 12.2287 70.8954C11.2285 71.8956 10.6666 73.2522 10.6666 74.6667C10.6666 76.0812 11.2285 77.4377 12.2287 78.4379C13.2289 79.4381 14.5855 80 16 80H112C113.414 80 114.771 79.4381 115.771 78.4379C116.771 77.4377 117.333 76.0812 117.333 74.6667C117.333 73.2522 116.771 71.8956 115.771 70.8954C114.771 69.8952 113.414 69.3333 112 69.3333Z" fill="#8C8C8C" fill-opacity="0.5"/>
</svg>
