<svg width="108" height="108" viewBox="0 0 108 108" fill="none" xmlns="http://www.w3.org/2000/svg">
<path d="M64.0026 68.6145C58.7724 72.6795 52.1902 74.5972 45.5964 73.9771C39.0026 73.3571 32.8929 70.2458 28.5114 65.277C24.1298 60.3081 21.8059 53.8552 22.0127 47.2322C22.2196 40.6092 24.9417 34.3141 29.6247 29.6286C34.3078 24.9432 40.5998 22.2197 47.2194 22.0127C53.839 21.8058 60.2887 24.1309 65.255 28.5147C70.2213 32.8985 73.3309 39.0113 73.9507 45.6084C74.5704 52.2056 72.6537 58.7911 68.5908 64.0239L86 81.3769L81.3792 86L64.0351 68.6145H64.0026ZM48.0577 67.5727C50.6217 67.5727 53.1605 67.0674 55.5293 66.0857C57.8981 65.104 60.0505 63.6651 61.8635 61.8512C63.6765 60.0373 65.1146 57.8838 66.0958 55.5138C67.077 53.1438 67.582 50.6037 67.582 48.0384C67.582 45.4731 67.077 42.933 66.0958 40.5629C65.1146 38.1929 63.6765 36.0395 61.8635 34.2256C60.0505 32.4116 57.8981 30.9728 55.5293 29.9911C53.1605 29.0094 50.6217 28.5041 48.0577 28.5041C42.8795 28.5041 37.9134 30.5622 34.2519 34.2256C30.5904 37.889 28.5333 42.8576 28.5333 48.0384C28.5333 53.2192 30.5904 58.1878 34.2519 61.8512C37.9134 65.5146 42.8795 67.5727 48.0577 67.5727V67.5727Z" fill="#8C8C8C"/>
</svg>
